<mxfile host="Electron" modified="2023-08-25T22:41:59.880Z" agent="Mozilla/5.0 (X11; Linux x86_64) AppleWebKit/537.36 (KHTML, like Gecko) draw.io/21.6.8 Chrome/114.0.5735.289 Electron/25.5.0 Safari/537.36" etag="MBz3wI-eDBjzKyhza_Yk" version="21.6.8" type="device">
  <diagram name="Page-1" id="K2WZMgYXKo6JqiS6BZ6P">
    <mxGraphModel dx="2074" dy="800" grid="1" gridSize="10" guides="1" tooltips="1" connect="1" arrows="1" fold="1" page="1" pageScale="1" pageWidth="850" pageHeight="1100" math="0" shadow="0">
      <root>
        <mxCell id="0" />
        <mxCell id="1" parent="0" />
        <mxCell id="KIZOwNAN3eOPZZ9ISucW-8" value="" style="shape=ext;double=1;rounded=0;whiteSpace=wrap;html=1;" vertex="1" parent="1">
          <mxGeometry x="361.5" y="313" width="310" height="190" as="geometry" />
        </mxCell>
        <mxCell id="KIZOwNAN3eOPZZ9ISucW-1" value="" style="shape=image;verticalLabelPosition=bottom;labelBackgroundColor=default;verticalAlign=top;aspect=fixed;imageAspect=0;image=data:image/png,iVBORw0KGgoAAAANSUhEUgAAAgAAAAIACAYAAAD0eNT6AAAABHNCSVQICAgIfAhkiAAAAAlwSFlzAAAOxAAADsQBlSsOGwAAABl0RVh0U29mdHdhcmUAd3d3Lmlua3NjYXBlLm9yZ5vuPBoAACAASURBVHic7d15vF9lfeDxT24ICUnYQkJYZHFh0YDI5gYuKO6iji21WnTGqrR1d9pKa+vUzrQz1L5mrMWt2NYZrWOHVruAAoIGBbQVWVSiIkYuoAQhhBCSAEnuzfzxvTE3l3tvfss553uWz/v1+r5yk9x7z/M8v7M855zn+zwgSZIkSZIkSZIkSZIkSZIkSZIkSZIkSZIkSZIkSZIkSZIkSZIkSZIkSZIkSZJ2Y052ASQVYj9gKbA/sO/Ev+0JLJr4ei9gwcTXewN7TPn5bcCDE18/DDw08fUmYMvE1w8A64C1E19LajA7AFI9LQCOmIjDgOXAAcCSGf6cW3H5xoD7iA7BdH/+HLgTuH0iHq64fJJ2ww6AlGMRcCTwWHZe6HfE4cDBaSUrxxp2dgYmxyhwG7A5rWRSR9kBkMq1B3FBXwGcDDxp4utjgZHEctXNGmAV8H3g+omvV+GTA6k0dgCk4hwOnEhc4J888ecxwLzMQjXYVuCHREfge8DNwE3AHZmFktrCDoA0mD2AE4DTiTv704nH+SrfGuIpwfXANRPhkwKpT3YApN4cDJwCnMbOi/6CWX9CVdkGfAe4lugUXE2MK5A0CzsA0vSWAS8AXgScQYzEV3PcAawELgeuBO7NLY5UP3YApDAXeApwJnAW8AwcpNcm3wcuJjoDX2fn3AZSZ9kBUJc9jrjgnwm8kJ0T6KjdNgHfJDoDFxOdA6lz7ACoa04Bfhn4JeAJyWVRPdwKfB74R2IMgdQJdgDUBSuAs4HXAkcnl0X1dgfwz8A/EIMKt+cWRyqPHQC11Y6L/q/hnb4GcyfwT9gZUEvZAVCbnAycQzzed9S+inQH8Zrg74AbkssiSSJWwTuXeHe73TAqiFXAecTqi5KkCo0Qk/H8FTGiO/uCYHQzHgYuItJGq16NURqarwDUJIcSj/jPJVL4pLr4KfBZolN6W3JZJKkVRoBXAZcRa9Bn3/UZxmwxBlxK7LNOJCVJA1hM3On/gPyTumEMEquJsQL7IUnarYOBDwD3kX8CN4wi4gHgw8Ry0ZKkKU4CPk3M0Z59wjaMMmKMmHr4mUhSx80lcvavIf/kbBhVxtXAqzF7QFLHjBCz9P2Q/BOxYWTGT4ixLnYEJLXajgu/A/sMY9f4PvAG7AhIapk5xGQpN5J/ojWMOscq7AhIaoEdF/4byD+xGkaT4maiI+BcApIaZQ4xwOk75J9IDaPJcRMxqZCztkqqvVOIEc7ZJ07DaFN8CzgNSaqhQ4l50J2u1zDKiXFi8aEjkQrgQBMNayHwn4kT0zPwUaVUljnACiJtcB/g34mJs6SBeLLWoEaIQUp/ChySXBaFB4C1xDTKG4CtwMaJ/3uIWL4W4EFg25Sf3QPYe+LrBcBeE18vBuYRF5wDgKXAviWUXf37GfA+4O+IpwNSX+wAaBDPBj5ETN+rcj0I3A6MTsQdwL3ERX7dlD/HKirTXKIzcACwZNKfBxLz3R9BPKY+gp2dCpXn28B7iBk1pZ7ZAVA/DiYWNTk7uyAtcweR/30LcZG/fVKsyytWIZYQHYEd8VjgGOJR9mGJ5Wqb7cD/IzoCdyeXRQ1hB0C9mAO8HvhfxN2eBrOeuNCvImZ+W0WkSt6bWahE+wJPIDoDJwNPAo4HlmcWquHWE6tpXoCvBbQbdgC0O08kRvc/K7sgDbOBGKT1TeDfiAv9Xaklao5DgBOApxMr5z0NXyX06+vEYMFbsgsiqXnmAecRA8ey05+aEHcRmRDvIu5mncGtOHOJpwRvIDqjq4i72+zPvO6xBTgfmN9/k0vqqtOIk2z2CazO8QPgL4CX42uRDEuJaab/EleV3F3cTDxJkaQZ7UsM8nMyn0fHg8DFxGPVIwZtYJXmIOIJwUXEwMns/aVuMQ58mhiUKUm7eCHwU/JPVHWJMeL9/QeICY6cNKs59iCeYv0xMf7CDu3OuBM4c/CmldQmC4j3hJ4kow2uId7jO7lReywlng5cTEyOlL2fZcc4MZZi4TCNKqnZVgA3kn9C8qKvqtgZ2BmrgKcM15ySmmYE+G26O8J/DLgS+A1i9jp103Lgt4Cv0N0nYA8B78aUcKkTDgK+RP6JJyPuJF53PHboVlTbHEqkva4mfz/NiCsn2kBSS/0SsVhM9smmyniYGBl+Fg7k0+6NAKcT78g3kb//Vhn3A68dvgkl1cki4H+Tf4KpMm4E3oFpTxrcEuCdwE3k789Vxt/gAEGpFY4Cvkf+SaWKeITIdT6lkJaTdjoV+Ayxj2Xv51XEd4h1GiQ11MuJx3rZJ5OyYz0xgZGry6lsy4m5IbrwKu0B4NWFtJqkyswhBjS1fWTzrUT63qJimk3q2XwinbDtU2aPEwNnHT8jNcABwOXknzjKjGuAs/GkpHxziJn1LqbdCxR9FVNmpVo7BRgl/2RRRowD/wKcVFRjSQU7hegIZB8rZcVtePxJtfQGYDP5J4ky4gpiEJbUBE8mUk/b+ETgYeAtxTWVpGHMI3KWs08MZcQX8cKv5noacCn5x1EZ8XFi0SVJSRYTF8nsk0HRcQVx8pTa4Om089XAFcQS4pIqdjjty++/hlh6V2qj04BvkH+cFRnfwfRbqVJPJua1zz74i4o7iTEMLkiiLjgL+An5x11RcRdwcqEtJGlaLwI2kH/QFxEbiUlVFhTZQFID7EnMYfEA+cdhUcfyWYW2kKRdnEs71jAfI6bsPajY5pEa52BiEO828o/LYWMbsf6GpALNIe6Usw/wIuKrwFMKbR2p+U4CriL/+CwiPkysqihpSHsB/0z+QT1s3A28puC2kdrmdcDPyT9eh40vEOcuSQNaBFxJ/sE8TIwTj/uXFtw2UlvtR7wWaPpEQl8D9i64bVSgQUZdLwOOAx5DvL/aBtwLrAGuIwa1aHj7AV+i2Wlxq4HfJDoxqsZ+RGfrAGI9+8UT/76IGHgGsA+PXkdhjBhcCrHk7eaJrzcC9wHriBXw1pdSak3n2URH4Njsggzh28CLiX1Iw9sXeCoxfupA4ji+C/gpsTDVvf38sl47APsCbwReD5w4y89tBa4m5mz/G2BTP4XRLxxILOjT1Hfl24CPAe/DfaAoy4AjpsSRxMV+CTsv+GUvkDRGdAYmdwpGgdunRF8nIs1oAfB7wO+zswPXNDcBL8R9YlCLgDcBrwJOJ2Z/nc524Abg74BPUcDN+J7AHxC9/n4f/9xNpLnMH7YQHXMQzZ7g5wZcMGRQ84kO9uuBPwMuIXr1m8j/XPuNTRNlv3iiLudM1M3zwWCOB75J/uc6aPyAeGqs3i0A3sNgY0LuZ8hO4xHELE/DfvD/jjNF9eqxxGPz7IN1kHgY+B0c/durg4ge/X8hFo75Ae1I8dxdbJ2o60UTdX8lpoP2ai7wu8QrmuzPcZD4MfHUSrt3OPFKfdg2v2nid/XlacQdfFEf/M+JaTA1s2No7ux+3yfu7jS9ucAKYh6HTxN3xk0f4FV03EV0Ct5FPOZs6uPuKhxHMTdnWZ/ziuKbpFWeBdxDcW2+hj4WVXsyMfCn6A9+HfDEfluiI54E/Iz8g7PfGCcGKS0svkkabR4xgOu/EbndZRxPbY+NwErgvxInRFee29UC4HxiTEb2Z9Vv/Bw4ofgmaYUnMdgr993Fg0THcVZLiMc0ZX3wqzEdbKoTiQFV2Qdlv3EXMS2xwuOIO/yLiPdv2Z9P22IjsfrceXgjMdmLiTu87M+n37iP5g5yLsuBlLtGxI+ILKEZ/UOJG98RFw3WNq10JMW+aqkqvoAduXnEyfejwK3kfyZdix8BHyE6oTONiu6KZTRzsrA1xFgzhc9Tfpt/bqaNn0J17yWfM2gLtcgeNG9U70YiHaWr5hLvpz9MO2Zra0usI8ZWnEW3xw6cS/MyRq6l/NTVJjiDatp7nBnGa32xogJsx4lhAN5C/sHXT9xKpCJ1zXzgTOKiX+TAHKOcuJ+dnYEuphyeQLmvccuIN5bSEs1S5Yyvl0zd+CFUPyr5ycO0VsMtAO4g/8DrZ4fZv5SWqK9TgY9TzoAco5q4n5iQqmtr1e9DvKbLbv9e43a62Vnb4Tiqvf6OE9f8X8i4G71wuDZrtN8i/6DrJbYRE0ENMmV0E+1HPEa9gfy2N4qNVcQAwmV0wwgxz0JTsgTOLacZGuGTVN/evz65AFUMPpgam4isgy5qwgI/a+nGKP8R4r3+X9G896dG//EwMRD5LLrx7vkMmjFe5dKyGqDmlpBz3tllMH7WpBLvHablGmof6j+T1w3ErIRttpi46/g++e1t5MSPiYmHFtFuhxEzsma392zxMDsXruqS88hp7xsmFyKrh3g73Zvg4/nkH2yzxd8SYxTa6iDgAzRz7gWjnHiAGOTZ95SpDbIX8H/Ib+vZ4rllVb6m5lJu3v9s8bPJBcmcg/w/DN5+jfQG8g+06WKcuDC21UnE6PAt5Le1Uc/YRixe1OQluHfnXdR3XMBrS6x3Hf0H8tr6kckFyXxH9NXB26+R3kv+gTY1HgZeV2alEz0P+Br5bWw0K64i3p+30S8Dm8lv46nxn8usdA2tJK+t75pckOxRz11KCfw98g+0yXEv7Vyo6XSaMdjSqHdcQ7y2a5tnEQN9s9t3cnRpTFjVqX9T4zrYuXTr7SVWtBdvT95+le7OLsAkq4kL5bXZBSnQM4nHuFfTzhO3qnUa0ZG8hnia1BZXE6u+3pJdkEnu2v23tMY7yU2v3uWa/x5ye35dSgl8Efk97e3ECeCAkutapWfiHb9RfnyZdo0RWErcAGS363bgBSXXtS6yUv8mxzsnF+hI8tcn78rjn2XEYKPMtv4c7Zl56zBicF/2/mt0Ky4mVoBsgwXA/yO3PbfRrhuS2WSl/u2IcaZJ8/5KcqFG6cbEHJDb4/44O1/9NNliImvhIXL3W6O78QiRPrgvzTcH+Avy2vLr5VexFuYS17rM/fYr0xUsMyVhR3QlJTCrB3h+FZUr2QiRStnEZZSNdsZaIr2u6Tcwc4APktOGXXkC/Gry99dXTVewzEkJdkRXUgL3o/qJaNpw8T8T+C75B5BhTBc30Y7UwapvUO6nO2PAVpK7j44yS0e1DjnqXUkJ/H2qac9xmp9fu4SYqz973zSMXuIimr/o0NuoblzNeRXVKVt26t924HdnK+D+wMbkAnZllcCFwK2U25ZjNH+VrbOJuQoy90nD6DfWEcdek1fS/A3KnzXwR8S5sAsyVv2bHJvoYaDlhcmF3NxLIVviZMpLB9kKnFNdVQr3OCLlKnNfNIxh4yrgGJrrHMqbKn4TMUV3F9Th5vqveinoCvIfU3RlQAjAyyl+dcCHicEmTbQHMaAq+2AxjKJiM5GxsifN9GrinFJkmzwCvKzKSiTLTv3bTh+v17+aXNCurRJ4JjEQpoi2u4/mDkR6InA9+QeKYZQR3waOpZmeR7zWKKId7qdbs3TWYYD9tKl/MzElsHpHMvxMdpfTzCVN5xDvS73rN9oeDxFPuJo4NuAI4AqGq/8VE7+nS2qb+jfTTjiXGKD2qNmCKrSSds293avTgf8x8WevvgW8jz57eTVxEPC3wEuyC9Ii64nc9HXEE6GNxGPoHUuAbiAGd002F9hn4uv5xMCsxcR4nCXElLH7lVrqbvki8CZiJdamOR3478SCQr26DvhvxAyKXbMSeG7i9m8HHs+jj/lZe6HvBf6srBL16AQi77uLjiPekb0IOAo4kHiHuAW4hxg9ezlwCfD9pDIO6xXAX9P8lKmqbAfWALcRB/XkuIPIlljHNAd6QeYSnYFlxF3c1DgSOJhm3t1muIfoBFySXZABrSDGMM12jvoy0dm5OamM2Y4jrmGZx8R7gT/v94fqMGqxKymBvWrLHdhCzOvfXdxNvBL6EPBm4KnEHXnd7U2sMvdmYmrZK4m73Oz2rGuME9NztyUVri3nqKI0IvVvJqYEqmhPwNn8pjtIryJe/bwCWD5o49bYcqJu5wNfI381tLrFTcRjWrVHHW6ie0r9m4kpgSrSWRSX7dDkuB/4R+DtxFwQXcp42WEP4BTgHcDniXEL2Z9LdqwjHqmrHRqV+jcTUwI1rDnEwVD2rGJ1jTEiBex8IuWzqfngZZpLdIbOI0aKlzX5TN1jnNhPmr6wUNc1LvVvJqYEahgHAJeRvw9VHZuJO9vX0p2FTop0APBrwD8RbZn9eVYdl+J+02S1Tf3rVx16Ml1ZJbBtTiZ/7esqYxPwD8BraMaAvaZYDPwq0aHqUmfgNuDEAtpP1VtJ7r4zSoFPkVwlUP16Fd0Y6LUN+BJx0W/LSO46W0R0Bi6jG6+UNgKvLKTlVJXar/rXrzqMZjQlsDneRftPzncS72ozJ8vqukOJMQOryd8fyoxxYi0BNUOjU/9mYkqgdmcucAH5J8yyYgvwOWIe85GC2kzDGyEGV/498Rll7ydlxYdxcGDd1eFmeajUv5mYEqjZLAL+lfyTZBmxnjj5HlZYa6ksBxF3y2vJ32/KiMuIyZZUT61I/ZuJKYGazsFEmlv2jl90/Jh4nbGouKZSRRYAbyCmyc7ej4qO7wCPKa6pVJA6DJgvdT0YUwI11VFExyx7vygyvkVMWuRj/uYbIQbRta2Dehsxq6bqozWpfzOpQw/HlMD6eCLwM/J3+qLiO8DZuJhNW51JrEqXvZ8VFXcDxxfaQhrGSnL3h1EqGCNiSqAATiJWn8veF4qI7+KFv0vOpD1PBNYRC0UpV+tS/2ZSh1GOpgTmOo12zN3+I+KxnRf+7plDdPp+TP5+OGzcDzyz2OZRn1qZ+jcTUwK76znABvJPesOeMM8D5hfcNmqeecRAz6Z3aDcCLyi4bdSbOtwUl5L6NxNTArvpZcBD5J/sBo2twEeBpUU3jBrvQOATxMyO2fvpoPEQcYyqWq1O/ZuJKYHdcgbwMPk7+qBxBfCkwltFbXM8+ee2YeJh4LlFN4pmVIeB8aWm/s3ElMDuOAy4j/zPe5BYB5yL7/nVn7Np7iDXdcARxTeJptH61L+Z1KHnY0pgNS4nfycfJD4DLCuhPdQNBwKfJX8/HiS+VEJ76NFWkvs5j5I4PbQpge33bPI/437jJ8CLymgMddJLiIl3svfrfuOMMhpDv9CZ1L+Z1GH0oymB5fom+SeyXmMc+DhO3aviLSJGWmfv4/3EtaW0hHboVOrfTEwJbK8nkX8S6zXuAV5RTjNIv/Bi4C7y9/de4+hymqHz6nDzW2nq30xMCWyvOrzi6SUuBw4pqQ2kqQ4ELiZ/v+8l3lNSG3RdJ1P/ZpKdNmNKYDmuJH8nny02AW/FEf6q3hzg7cQTyOzjYLa4rKwG6LA6DIBPSf2biSmB7XQb+Z/rTHErNeoBq7NOoN7TCd9aXtU7q7OpfzOpQ4/IlMDi1fXu5hLiHZxUB/sAXyD/uJguNpZY765aSe5nOkpi6t9M6vC+2DvC4uxF/uc5NcaA9+Mjf9XPCPBHxD6afZxMDde8KE6rUv+KPJHuD9xJbgrWJ4lZ31SMTcDC7EJMWAf8Gr7T7NV+xJoHBwBLJv7c8VnuS1ywJhsHHpj4ejMx8+N9RLvfO+n/NLuXAH9HtHkdPEg8oVAxPgm8OXH7m4HDiWNzaEXfSV0IvKXg39mPh9g5ba2Gtxp4XHYhgFuIRU5WZxekRhYSaZorgCMn4gji5HAYsGfB29tCdPBvB+4gHkPeBnx/IjYXvL0mewIxE99R2QUhxgCYCliM/YGfkntTdCHwG4nbn5Upge3yZfIfX36N+txNZVlCdID+mHjXfCv1etQ8NlGmz0+U8aX4mR0AXE3+Z3Np2RXtEFP/emBKYHu8h9zP8iJgQem1rJ/HEo8ZPwX8gPxO9SAxTjwZ+FvgTcQTiq6ZT7wOyPwc3ll6LbuhDgPda5X6NxNTAtvj8eR9hh/m0e+p22ohcCZwPvBt8o+fsmI1MXvZ2XTnvfQc4APktfkTSq9hN5j616M69JRMCSzO16n2s9tG3DG23ULgLODT5E8pmhEPE7PpvYEYlNh2byH27Srb+KoqKtYRK8k9XkapYerfTEwJbI/Tqe4z2wqcU021UuxF1O9i4gKYfYzUJR4G/oXI8thr4Natv9cQgymratfnVFOt1mtV6l8V6rBQgqsEFqeKec8fIu6I22gF8Xh/LbnHRBNiPfGa4PSBWrr+XkE1nb9/qapCHeCqfwNwlcD2OJTIBS/rs9pIvANvk4XAbwI3kXscNDluJFKe6jIXRVFeQLk3SPfg4lhF2Z+4AGceB7VY9a9fpgS2y9Mo56S1HjitwnqU7SBi0Jd3+8XuIx8m5jdoi9OJehXdVptp79OTDKb+DcGUwHY5E9hAcZ/PGuCkSmtQnhVEyleV73i7Fo8Qgyaf2ONnUncnAXdTXPs8ADy/0hq0Wx0GtDci9W8mpgS2z3HAKob/XK4lZq1ruicSF6WqR3h3OcaIOSKO7eHzqbsjgG8wfJvcTHRCVRxT/4ZUhx6UKYHF25NYc2EN/X8ed0z8bNOfzBxN3PF74c+LbUTnq+m57iPE3Air6b8N1hKPqbs4YVbZVpK7f4/SoNS/mZgS2F57A+8mHlPN9uh7M7GE75spfo76qu1PjOg3ja8+sYUYKLV0ls+tCeYT8wV8kdmX4t5CHHPvBhanlLT9OpH6V8Wyqq4S2A37AE8hMgaWEwfPGuAuYjR30xeLmQe8EfgTYFlyWTS9dcAHgQ8RF8kmW0iMETgEOJg4V99DLEZzEzEWR+Vp1ap/2UwJVJOdAfyQ/Dtdo7f4Pk6Co8GZ+lcwUwLVRPsRB2L2vmv0H+PE+AA7/uqXqX8lMCVQTXIW8bg1+0RgDBd3E+sNSL2ow8D1Rqf+zcSUQDXBMuCfyN9XjWLj8/g0QLtn6l9J6tCzMiVQs3kB8DPyTwBGOXE38DKkma0kdx8dpQWpfzMxJVB1tIBI7Rsjf/80yo1xYlxH29YX0PA6kfqXyVUCVTdPAL5L/oXJqDZuAh6PtJOr/lXAlEDVxcuI3PHsi5GREw/guCAFU/8qYkqgss0hUn185G+ME69/WvveVT0x9a9CpgQqy97Al8g/2I16xSU4rW5X1WGAeitT/2ZiSqAyHAJcT/6+Z9QzvgschrrG1L+K1aHHZUpgtxxPrESYfaAb9Y6fEXPwqztWkrvPjdLBV1CmBKoqLwYeJH9/M5oRG4AXoi4w9S+JKYGqwitw6V6j/3gE+GXUdqb+JTIlUGV6HbCV/IuJ0czYBvwn1FadT/2bk7lxIiXwe8nlOI9YQ1zt8pvAR4GR7IIk2kq8076HWFd8HXHCe4B47DnZCLAvsAhYQnSMlxMDJ+dVVN46GgfeSkdytDvmPCIFNNMJxODTFNkdAIjBeGckbv8OYkawbYllULHeCnyEeuzfVVgD3EycSFYBtxIDi+7i0Rf6fs0FDgaOBI4mOu3HT8RBQ/7uptgOvA34eHZBVJi5xHHy2MQyfBV4fuL2a8GUQBXplbR7gp8x4DrgQ8CvAI8pptkGchjwmomyfJv2t/vLi2k21YCpfzVhSqCKcgjxqDv7wC467gU+BfwqsLSw1ireMuC1wP8G1pLfbkXHWuJpiJpvJbn70igdTP2biSmBKsJfkb8fFRX3Ap8AzqSZs1buQaTSXUi7OgMfK7KRlMLUv5oxJVDDOgrYQv4FYpgYA64A3gDsVWzzpNoTOAu4iOZnZWzBVQSbztS/GjIlUMP4GPkXh0FjHTEa+fDCW6V+jiCybu4nv90HjQsKbxVVpfOpf3XlKoEa1BzgTvIvDP3GbcTo8kXFN0ntLQbeQbwLzf4c+o3RwltDVXHVvxpzlUAN4iTyD+p+97N3AfPLaIyGmUe88lhN/ufiSbzd6jDgvFOr/vXLlEAN4k3k7ze9xFrg7cQ7ce1qPtEpakoWxxvLaQaVyNS/mqtDD82UwOZ5P/kH9myxhXjvV+cUvrrYnxgPUff1G36/rAZQaVaSu8+MYurfbpkSqH5dQP4+M1N8DTi2vKq31pOAa8j//GaKvyyv6iqBqX8NYUqg+vU/yb8gTI31xCPtLq9FMKw5xPiAOr4W+PMS663imfrXIKYEqh91eGo0Ob4MHFpqjbvlMcCV5H+uk+N3Sq2ximTqX8OYEqh+nEP+BWE78BDwbrqzCFGVRoDfpj5jA15bbnVVIFP/GsiUQPXqCPIP8FvxIK/CieSnDI6TuwiTeleHgeWm/g3AlED147vk7SeXEI8ZVY19gC+Q93nfUH4VVRBT/xqqDj03UwKb4wNUv3+MA3+Ej/wzjAD/lZxXhe+voH4qxkpyryGjmPo3sDoM7vKxbjPsR8ypX9V+8Qgx9kC5foUYe1HV534/sKSSmmlYpv41nCmB6scfUM0+cR/w7IrqpN17LtV1/n6vmiqpAKb+tYApgerVQmAV5e4Pa4Djq6qQevZk4G7K/exvpl3LNLeZqX8tYUqg+rGCmISnjP3gDuDo6qqiPh1DeatC3k/MTqhmMPWvRUwJVD+eBWyg2H3gVuDICuugwRxJfFZFfvYbiH1KzVCHAeSm/hXIlED162Si41bEZ381cGC1xdcQDgSupZjPfpSYe0DNYepfy9ShR2dKYPPsTwwE2spgn/l6YtCXT3+aZw/gfQz+Omgr8Q7X+R2aZyW514pRTP0rnCmBGtTRwOfoPV3sPuCDmO7VBgcQC/f0miXwEPB/caxHU5n614cmTWCyPzHAZ1FiGT4JnJu4fQ1nEfCCiTgCOATYF/g5cA/wA+BS4vHxWFIZVY49gNOAFwNPJF4TLCeeEKwhXhd9mVh0aFNSGTW8TwJvTtz+ZuBw4iZCBTMlUJI0HVP/Ws6UQEnSdEz96wBTAiVJk9VhoHjjUv+aeCG7ADgjcfuHA2cB/5RYBqkfC4DHAQcR4x72JlbUm2wD8CBwFzGj3k+AhyssozSMVwKPTS7DBcnb74Q69PRMCVRdLQSeD/whcDGwmhjQ2O8+Pjbxs/868bueN/G7pTpaSe41YRRT/ypjSqC00/7A2cCnKX4GxMmx9gLtwQAAFXlJREFUmehUnEuMoJfqwNS/jnGVQHXdHsBriLS1QSc6Gia2AlcQy/E28VWi2sNV/zrIlEB10T7Au4hHjpn7/+S4C/gATpyk6pn611GmBKpLFgN/SgzUy77gzxQPTpRxcUltIE1l6l+HmRKothsB3kDcZWef6HqNe4mnFA6KUpnqMCC8cal/beIqgWqzE4Ebyd/HB40bgKcU3ipScNW/jqtDD9CUQBVtLvFo8xHyT3DDxlZifIBPA1S0leTu26O4X6czJVBtcgTwDfL36aLjWmISLakIpv4JMCVQ7XE6MQtf9sW6rLiX3Fk81R6m/ukXTAlU0/0msIX8i3TZ8QjwloLaTN1k6p92YUqgmqwOqUxVx/mFtJy6qA7Hi699a8aUQDXRn5N/MsuKDxbQfuqWOgz8NvWvhkwJVNO8n/x9Njv+cOhWVJeY+qdp1aFnaEqgevVi8l9b1SHGgZcP2ZbqjpXk7q+jmPpXW6YEqgkWAHeSv6/WJW6faBNpNqb+aVamBKoJfpv8i27d4t1Dtai6wNQ/7ZYpgaqzhUQ+fPYFt25xD7DXEO2qdjP1Tz0xJVB19iryL7Z1jbOGaFe1m6l/6pkpgaqr7MeYdY5PDNGuaq86DPA29a9BTAlUXWWfyOocPx6iXdVepv6pL3XoMZoSqKnm0I3pfgeNRybaSJpsJbn75SgtTf0byS5AScbIf5x4Br4z0q6WAvOyC1FjewJLsguhWjkOeE5yGT5KXFPUIKYEqm6OJP8uu+5x5IBtq3bKHjNj6l+DmRKoOtmL/Ats3cNUQO1g6l/J2voKYIcPEx9ilr2ANyVuX/XyELAhuxA1tp5oIwngXGLejEwfTd6+hmRKoOrkm+TfZdc1rh2iXdUudRjI3frUv7Y/AQC4IHn7h+MEJ9rpi9kFqLFLsgug2ngl8NjkMmRfO1SAOvQkTQnUDk8h/067rmHWjHZYSe6+OEpLU/8m68Kj6R0pgX+WWIYdKYHfTSyD6uEm4Brg9KTtrwVuJDrF6yf+bX/gccCJ5A1a/ToeHwqm/qlQpgSqTp5FtfveBmJA7FOZfaKdOcDTgb8EHqy4jKf10X5qN1P/VDhTAlUn/0z5+9w4cTIdZHKdA4C/ppqFtb4wQPnUTqb+qRSuEqg6ORD4GeXta3cSTxqG9eyJ31VWOX8KLCugnGoHV/1TaUwJVJ08hXgPX/R+dhNwaIHlPHTidxZdzvXACQWWU81WhwHbrU/96zJXCVTdnATcTbEnsH1KKOc+FNuBXjNRd2kHV/1TqerQwzQlUFMdyvAX163A/6DcxYbmEdk024Ys65XAISWWU820ktxz8ygdSP3ruveS38v0HZOmcyaRotfPvjQOXEy1+9SxwEX0P6ZmFXA2LvmrRzuO/DFav1t6LZXOlEDV2QjwEuBjxJiR6fafMeBbwH8hTpxZjgf+CLiOmU/eo0RdXkw3Zh7VYEz9S9DVnviFwFsSt/8QcBhwX2IZ1AzLgOXAQcAjwM+J7IFNmYWaxiLiVcZyYD4xruFuYuIhaTb7E9kgmQv/XAj8RuL2VSFTAiWpHkz9U+VMCZSkXHUYmG3qXwfVISXw1aXXUpLq65fIPw+b+tdBdeh5riy9lpJUX1eRew4exdS/zjIlUJJymPqnVKYESlIOU/+UzlUCJalarvqnWjAlUJKqZeqfasOUQEmqRh0GYJv6p18wJVCSqmHqn2qlDj3SlaXXUpLyXUXuuXYUU/80hSmBklQuU/9US6YESlK5TP1TbZkSKEnlMPVPtWZKoCSVw9Q/1Z4pgZJUrDoMtDb1T7tlSqAkFcvUPzVCHXqqK0uvpSRV5ypyz6mjmPqnHpkSKEnFMPVPjWJKoCQVw9Q/NY4pgZI0HFP/1EimBErScEz9U2OZEihJg6nDgGpT/zQwUwIlaTCm/qnR6tCDXVl6LSWpeFeRe+4cxdQ/DcmUQEnqj6l/agVTAiWpP6b+qTVMCZSk3pj6p1YxJVCSemPqn1rHlEBJml0dBk6b+qfCmRIoSbMz9U+tVIee7crSaylJg7uK3HPkKKb+qSSmBErS9Ez9U6uZEihJ0zP1T61nSqAk7crUP3WCKYGStCtT/9QZpgRKUqjDAGlT/1QZUwIlKZj6p06pQ493Zem1lKTdu4rcc+Eopv6pYqYESuo6U//USaYESuo6U//UWaYESuoqU//UaaYESuoqU//UeaYESuqaOgyENvVP6UwJlNQ1pv5J1KMnvLL0WkrSTleRe84bxdQ/1YQpgZK6wtQ/aRJTAiV1hal/0hSmBEpqO1P/pGmYEiip7Uz9a5E6p4/NBY6YiKXAImDxxJ91tRZYlrj9dwBzErcvqd3enrz9e4GXTEQdbSJeB28irgejRKr2eGKZZlSXi8UewCnA84CTgGOAo4D5mYWSJGlIjwA/mojriaytbwPbMgsFuR2AZcBrgBcBzwH2TiyLJElV2QB8HbgMuIh4slG5qjsA84EXAq8nJnGYV/H2JUmqkzHiqcBngH8kBnRXoqoOwL7Eu6N3kfuOXJKkuroX+AvgI8RTglKV3QFYCrybuPjvW/K2JElqg/VEJ+AvgPvK2khZHYAR4Bzgf2FuuiRJg1gPfIDoDIwV/cvL6ACcBHwMeFoJv1uSpK65EXgr8G9F/tIiF1OYB5wPfAo4rMDfK0lSlx0M/DoxD85VFDSvQFFPAA4DPgecVtDvkyRJj3YdkUJ/27C/aGT4svBy4Ca8+EuSVLZTiU7AS4f9RcO+Angj8FnqPT2vJEltshD4VeAeYlbBgQzTATgPuIBiniJIkqTejRBP4PcCrhzkFwzSAZhDpCS8b5ANSpKkwpxOzLlzWb8/OEgH4IPE5D6SJCnfUxngSUC/HYC3A3/S589IkqRynUYsRfzNXn+gnw7A64ELqc8SwpIkaacXAKuB7/byzb1ezE8gZiBaMGChJElS+R4BngncsLtv7KUDsDeRZnD0kIWSJEnlWw2cDDww2zf1ksL3Cbz4S5LUFI8HPrm7b9rdGIA3AX9QSHEkSVJVVgB3EDP1Tmu2VwAHAD8k8gslSVKzrAOOAdZO95+zPQH4CM7vL0lSU+0F7AdcMt1/zvQE4DTg6ln+X5Ik1d84MVvgo+YHmOkC/w3gGWWWSJIkVeIa4FlT/3G6LIDn4cVfkqS2OB14ztR/nK4D4Kh/SZLa5VHX9qmvAJ5GzPgnSZLa5TTiFT/w6CcA76y2LJIkqSK/Nfkvk58A7AOsARZWWhxJklSFTcDBwIMAe0z6j1+ivhf/+4FvAT8mljuUJKluFgNHAacC+yeXZTqLgFcD/2fqf6wEttcoNgB/CTyfXTsqkiTV2R7EtesC4m47+3o6Oa6cWthlwFgNCrYd2DLRaAf22tKSJNXUcuCjxLUt+/q6nbjWHzC5gGfXoFDbiYULTuy3dSVJqrlTgDvJv85uJ14D/MLHa1CgbwIHDdCokiQ1wcFEqn329fYjkwt1S3JhfkAsWCBJUpvtDdxM7jV31Y7CLE8uyFrg8YO3pSRJjXIUcB95191xYuwfz00sxHbgdcO1oyRJjXMOudfeZ48Ax5RezZndBPx94vYlScrwf4HrE7d/dHYH4PeIRxGSJHXJOPD+xO0fC/BFch4/rGH61QglSeqCucDPybkGXzxCXurdv+LdvySpu8aAi5O2vXyEmLs4w6VJ25UkqS6+lLTdvTM7AKt2/y2SJLVa1rVwnxFiGeAMa5K2K0lSXWRdC/eeQ7yDyBiMNxfHAEiSum2EuA5XbXwOMRoww5yk7UqSVCcp12HT8CRJ6iA7AJIkdZAdAEmSOsgOgCRJHWQHQJKkDrIDIElSB9kBkCSpg+wASJLUQXYAJEnqIDsAkiR1kB0ASZI6yA6AJEkdZAdAkqQO2iO7AJJUoiXAqcATgMUT/7YR+DHwLeD+pHKVxfq2u76F254UklSGvYF3AF8BtjLzOWgrcOXE9+6dUtJiWN/m1zftOmwHQFIbzAPOBe6m//PRWuA8YH7lpR6c9W1Pfe0ASNKADgduZPjz0vXAYRWXfRDWt131tQMgSQN4JoPdFc4Ua4BnVFqD/ljf9tXXDoAk9emJwHqKPz9tAI6rsB69sr7trK8dAEnqwxLgVso7R/0EWFpZbXbP+ra3vnYAJKkPf0/556nPVlab3bO+7a1v2nU4bcOSNKBTgHHKP0+NAydXVKfZWN921zftOpy2YUka0OVUd666tKI6zcb6tru+adfhtA1L0gCWA2NUd64aAw6qpGbTs77tri9UV9ddwrUAJDXNK6l2HZMR4GUVbm8q61uu7PqmsQMgqWlekrDNlyZscwfrW77M+qaxAyCpaVZ0ZJuZ27a+HWAHQFLTHNyRbWZu2/p2wBzyBuTNSdqupGYbo/qbl3FgbsXb3MH6li+zvpB0HbYDIKlpunbOsr7VyLwmpdTZVwCSJHWQHQBJkjrIDoAkSR1kB0CSpA6yAyBJUgfZAZAkqYPsAEiS1EF2ACRJ6iA7AJIkdZAdAEmSOsgOgCRJHWQHQJKkDrIDIElSB9kBkCSpg+wASJLUQXYAJEnqIDsAkiR1kB0ASZI6yA6AJEkdZAdAkqQOsgMgSVIH2QGQJKmD7ABIktRBdgAkSeogOwCSJHWQHQBJkjrIDoAkSR1kB0CSpA6yAyCpacY7ss3MbVvfDrADIKlpNidsc2PCNnewvuXLrG8aOwCSmubuhG2uSdjmDta3fJn1TWMHQFLTfC9hmzcnbHMH61u+zPqmsQMgqWkuTdjmlxK2uYP1LV9mfVNtTwpJGsSBwBjVnavGgOWV1Gx61rfd9YXq6rpL+ARAUtPcA1xR4fYuB35e4famsr7lyq5vqpSeRyU1k9RWJ1DNXeIYcFJFdZqN9W13fdOuw2kblqQhfJbyz1Ofqaw2u2d921vftOtw2oYlaQhLgFsp7xz1E2BpZbXZPevb3vraAZCkPh0LrKf489MGYEWF9eiV9W1nfe0ASNIAnkFM5FLUueku4OmV1qA/1rd99bUDIEkDOgy4nuHPS9cBj6m47IOwvu2qrx0ASRrCPOBcBrtbvBc4D9iz8lIPzvq2p752ACSpAIuBtxG55FuY+Ry0ZeJ73jbxM01lfZtf35Tr8BzyLsZzkrYrqTv2A04FHg/sO/FvDwCricfB65PKVRbr28z6plyH7QBIkpQr5TrsVMCSJHWQHQBJkjrIDoAkSR1kB0CSpA6yAyBJUgfZAZAkqYPsAEiS1EF2ACRJ6iA7AJIkdZAdAEmSOsgOgCRJHWQHQJKkDrIDIElSB40A44nbliSpy7KuheMjwOakjS9M2q4kSXWxOGm7m0aAB5M2fnDSdiVJqotDkra7IbMDcFzSdiVJqosVSdt9cATYmLTxlyZtV5KkunhZ0nYfHAHWJG38LBwIKEnqrrnkdQDuHgFuSdr4cuCFSduWJCnbi4ADk7Z9ywjwo6SNA5yPTwEkSd0zAvxJ4vZvyXwCAHAC8LrE7UuSlOEc4MTE7f8I4lH89sRYBxxVckUlSaqLY4D7ybvujgPLdhTmh4kF2T6x/f0Gb0tJkhphH2AVudfcVbDz/ftXy6trT44BLsPJgSRJ7XUIcCXwpORyrJz8l18mtzeyI+4ETimlupIk5Xkq8DPyr7PbgVdPLthSYKwGhdoObAE+RoxNkCSpyQ4CPgFsJf/6uh3YBiyZWsiv1qBgk+NB4CPAmcC8XltakqRk84AXAB8lZtvNvp5Ojit2FHLOpAL/J+BTxdW/UOuB64DVwAPE6ElJkupif2Bf4PHAqdR3YPt/BD4Nu3YAFhPTAmctTShJksqziXglsRF2nYVvI/AvGSWSJEml+wKTFgCcOg3vBdWWRZIkVeQTk/8ytQPw78BXqiuLJEmqwJeBb0z+h+kW4vnTasoiSZIq8qhr+5zpvgu4FnhmuWWRJEkVuBp49tR/nKkDcCrwb7hUryRJTTYOnEZc03cx0wX+Ouo7J4AkSerNJ5nm4g8zPwGAmCrwFmKaYEmS1Cz3AccCa6f7z7mz/OBDEz/8yhIKJUmSyvU2poz8n2y2DgDAjcDRwPFFlkiSJJXqIuAPZ/uG2V4B7LAY+DZwTBElkiRJpfoxcDKwYbZv6mWU/0bgV4hXApIkqb4eAV7Dbi7+0Hua33eBtxBLCUqSpPoZB34duKGXb97dGIDJvkeMJHzpAIWSJEnl+h3gwl6/uZ8OAMT8AHsBp/f5c5IkqTznA3/Szw/02wGAWCzoAOCpA/ysJEkq1keIu/++DNIBALgUeBg4c8CflyRJw/sz4LcH+cFBOwAQCwbdDrwc1wyQJKlKY8BbiQ7AQHqZB2B3Xgp8mngtIEmSyrUWeD1w2TC/pIgOAMBjgM/h4EBJksr0LSLPf3TYXzTMK4DJNgCfAeYDz8BXApIkFWkM+CBwDrCuiF9Y1BOAyU4EPgY8vYTfLUlS19xAvO//9yJ/aRl36jcCzwT+IzMsQShJknZrPfBuIu2+0Is/FPcKYDrfAf6WSBd8MjGBkCRJmt39xOP+XwOuoqRp+Mt4BTCdfYh1id8DLKtom5IkNck9wIeI1+i7XcxnWFV1AHaYD7yQSF94JbBnxduXJKlOxoCVxED6fwQ2V7XhqjsAky0FzgZeDDwH2DexLJIkVWU98DXgcuAi4L6MQmR2ACabC5wMnDHx59HAMcCCzEJJkjSkh4AfTcT1wFeJUf1jmYWC+nQApjMCHA4cScwyuHhS7D/k7z5vyJ8f1MBTNkpSRzT1/Hw/sHEiHiRy9UeBO4DxIX93KercAShTKSMqe9DV9pakXnl+rogz9kmS1EF2ACRJ6iA7AJIkdZAdAEmSOsgOgCRJHWQHQJKkDrIDIElSB9kBkCSpg+wASJLUQXYAJEnqIDsAkiR1kB0ASZI6yA6AJEkdZAdAkqQO6moHIGNt5lquBy1JNeP5uSJd7QBsTtjmxoRtSlLTeH6uSFc7AHcnbHNNwjYlqWk8P1ekqx2A7yVs8+aEbUpS03h+rkhXOwCXJmzzSwnblKSm8fysUh0IjAHbK4oxYHklNZOkZvP8rNJdRnU7mL1LSeqd52eV6gSq6WWOASdVVCdJagPPzyrdZyl/B/tMZbWRpPbw/KxSLQFupbyd6yfA0spqI0nt4flZpTsWWE/xO9cGYEWF9ZCktvH8rNI9g5gIoqid6y7g6ZXWQJLayfOzSncYcD3D71zXAY+puOyS1Gaen1W6ecC5DNbbvBc4D9iz8lJLUvt5flYlFgNvA64AtjDzTrVl4nveNvEzkqRyeX4uyJzsAjTAfsCpwOOBfSf+7QFgNfE4aX1SuSSp6zw/S5IkSZIkSZIkSZIkSZIkSZIkSZIkSZIkSZIkSZIkSZIkSZIkSZIkSZIkSZKkMv1/SfWbSTkSf9oAAAAASUVORK5CYII=;" vertex="1" parent="1">
          <mxGeometry x="360" y="70" width="90" height="90" as="geometry" />
        </mxCell>
        <mxCell id="KIZOwNAN3eOPZZ9ISucW-3" value="" style="shape=image;aspect=fixed;image=data:image/svg+xml,PD94bWwgdmVyc2lvbj0iMS4wIiBzdGFuZGFsb25lPSJubyI/Pgo8IURPQ1RZUEUgc3ZnIFBVQkxJQyAiLS8vVzNDLy9EVEQgU1ZHIDIwMDEwOTA0Ly9FTiIKICJodHRwOi8vd3d3LnczLm9yZy9UUi8yMDAxL1JFQy1TVkctMjAwMTA5MDQvRFREL3N2ZzEwLmR0ZCI+CjxzdmcgdmVyc2lvbj0iMS4wIiB4bWxucz0iaHR0cDovL3d3dy53My5vcmcvMjAwMC9zdmciCiB3aWR0aD0iNTEyLjAwMDAwMHB0IiBoZWlnaHQ9IjUxMi4wMDAwMDBwdCIgdmlld0JveD0iMCAwIDUxMi4wMDAwMDAgNTEyLjAwMDAwMCIKIHByZXNlcnZlQXNwZWN0UmF0aW89InhNaWRZTWlkIG1lZXQiPgoKPGcgdHJhbnNmb3JtPSJ0cmFuc2xhdGUoMC4wMDAwMDAsNTEyLjAwMDAwMCkgc2NhbGUoMC4xMDAwMDAsLTAuMTAwMDAwKSIKZmlsbD0iIzAwMDAwMCIgc3Ryb2tlPSJub25lIj4KPHBhdGggZD0iTTM2NjUgNDc4MyBjLTYzIC0zMyAtMTA0IC04OCAtMTIwIC0xNjEgLTggLTM4IC0yMyAtNDkgLTEyOCAtOTIKbC03OSAtMzMgLTYwIDMyIGMtNzIgMzcgLTEzMiA0MCAtMTk1IDEyIC01MSAtMjQgLTE2MiAtMTMyIC0xODYgLTE4MyAtMjUgLTU0Ci0yMiAtMTM0IDggLTE5NCAzMiAtNjIgMzEgLTc1IC00IC0xNTkgbC0zMCAtNzAgLTExNTMgLTUgLTExNTMgLTUgLTUwIC0yNwpjLTYyIC0zMiAtMTI4IC0xMDIgLTE1OCAtMTY2IGwtMjIgLTQ3IC0zIC0xMzA4IC0yIC0xMzA3IC03MyAwIGMtMTI1IDAgLTE5MQotMzIgLTIzMiAtMTE0IC02NCAtMTI4IDYgLTM1MCAxNTQgLTQ5MyA0NyAtNDYgMTI4IC05MiAyMDQgLTExOCBsNzYgLTI1IDIwOTkKMCAyMTAwIDAgNjggMjEgYzIxNiA2NiAzNzIgMjU4IDM5MCA0ODIgNiA2MSAzIDgxIC0xMyAxMTggLTQyIDkyIC05MiAxMjEKLTIyMCAxMjcgbC05MyA0IDAgMTEzOSAwIDExMzkgNDQgMTEgYzU1IDE0IDExMCA1OSAxMzggMTEyIDE4IDM1IDIyIDYwIDIyCjE0NyAxIDkxIC0yIDExMSAtMjMgMTUzIC0yOCA1NyAtODggMTA1IC0xNDIgMTEzIC00OSA4IC02OCAzMSAtMTA4IDEzMCBsLTMyCjgyIDI3IDUyIGMzMiA2MiA0MSAxMzMgMjQgMTg2IC0xNiA0OSAtMTQxIDE4MCAtMTk1IDIwNSAtNjAgMjggLTEyMCAyNCAtMTkzCi0xMiAtNjkgLTMzIC02MSAtMzQgLTE3NCAxNCAtNzUgMzEgLTg2IDQyIC05OSA5NCAtMTYgNjEgLTU5IDExNyAtMTExIDE0MgotMzggMTggLTYyIDIxIC0xNTkgMjEgLTg0IC0xIC0xMjIgLTUgLTE0NCAtMTd6IG0yNDggLTE0OCBjOSAtOCAxOCAtMjkgMjIKLTQ3IDExIC01MSA1MSAtMTE0IDg3IC0xMzYgMTggLTExIDc0IC0zNyAxMjMgLTU4IDExNSAtNTAgMTc1IC01MiAyNTIgLTEwIDM1CjE5IDYwIDI3IDc2IDIyIDMyIC04IDEyNyAtMTA5IDEyNyAtMTM2IDAgLTEyIC0xMiAtNDIgLTI3IC02OCAtNDEgLTY5IC0zOAotMTMyIDExIC0yNDcgMjEgLTQ5IDQ3IC0xMDUgNTggLTEyMyAyMiAtMzYgODUgLTc2IDEzNiAtODcgNTQgLTExIDYyIC0yNiA2MgotMTI1IDAgLTgwIC0yIC05MCAtMjIgLTEwNCAtMTIgLTkgLTMxIC0xNiAtNDEgLTE2IC0yNyAwIC04OCAtMzQgLTExOSAtNjcKLTI2IC0yNyAtNzQgLTEzMCAtMTA0IC0yMjMgLTE5IC01NiAtMTIgLTExMSAyMSAtMTY5IDE0IC0yMyAyNSAtNTMgMjUgLTY0IDAKLTEzIC0yNCAtNDUgLTU3IC03OSAtNjYgLTY3IC04OCAtNzEgLTE1NCAtMzMgLTY2IDM3IC0xMjcgMzQgLTI0NiAtMTQgLTEyOAotNTEgLTE3NyAtOTMgLTE5OSAtMTY5IC0yNCAtODEgLTQwIC05MiAtMTMxIC05MiAtNjUgMCAtNzcgMyAtOTggMjUgLTE0IDEzCi0yNSAzMyAtMjUgNDUgMCAzMiAtMzUgOTQgLTY5IDEyMyAtMTcgMTQgLTU0IDM0IC04MyA0NSAtMjkgMTEgLTczIDMwIC05OCA0MQotNjQgMjkgLTE0NCAyOCAtMjA0IC00IC03MCAtMzcgLTkxIC0zMyAtMTUzIDI4IC02MSA2MiAtNjUgODMgLTI4IDE1MyAzOSA3NAozNSAxMzIgLTIwIDI2MyAtMjYgNjEgLTU4IDExOSAtNzMgMTMzIC0zNCAzMiAtODQgNTggLTExMiA1OCAtMTEgMCAtMzIgMTEKLTQ1IDI1IC0yMiAyMSAtMjUgMzMgLTI1IDk1IDAgMzkgNSA4MCAxMCA5MCA2IDEyIDM0IDI2IDY3IDM2IDg1IDI1IDEzMiA3NgoxODIgMTk4IDUwIDEyMiA1NCAxODEgMTYgMjU2IC0zNiA3MSAtMzMgODYgMzIgMTUyIDYzIDYzIDg3IDcxIDEzMSAzOSAzMCAtMjEKOTQgLTQxIDEzMiAtNDEgMTQgMCA3NCAyMSAxMzUgNDUgMTMzIDU1IDE3OCA5NCAyMDIgMTc1IDggMzAgMjAgNjEgMjUgNjggMTYKMTggMTgyIDE2IDIwMSAtM3ogbS0xMjY5IC04OTIgYy0xNiAtNDYgLTE4IC0xODMgLTMgLTIzNyAxNyAtNjEgODEgLTEyMyAxNDgKLTE0MiAzMSAtOSA2MSAtMjEgNjcgLTI4IDE2IC0xNSA2NSAtMTM1IDcxIC0xNzEgMyAtMjEgLTQgLTQ3IC0yMSAtNzkgLTMwCi01NyAtMzUgLTEzNiAtMTEgLTE5MiAyMCAtNDggMTI4IC0xNTkgMTgwIC0xODQgNTkgLTI5IDEzOSAtMjcgMTk5IDUgMjYgMTQKNTYgMjUgNjcgMjUgMjMgMCAxNjkgLTU4IDE4NSAtNzQgNyAtNiAxOSAtMzYgMjggLTY3IDE5IC02NyA4MSAtMTMxIDE0MiAtMTQ4CjUyIC0xNSAxODcgLTE0IDIzNyAxIDYzIDE5IDEyMiA4MiAxNDIgMTUwIDE5IDY2IDIwIDY3IDEwNSAxMDMgOTYgNDAgMTE0IDQxCjE3MCAxMSAzNSAtMTkgNjIgLTI2IDEwMyAtMjYgNjcgMCA5NyAxMSAxNDggNTEgbDM5IDMxIDAgLTg1MSAwIC04NTEgLTIwODAgMAotMjA4MCAwIDAgMTI4MyBjMCAxMjIzIDEgMTI4NCAxOSAxMzIyIDIwIDQ0IDQxIDY2IDg2IDg5IDI3IDE0IDE0NSAxNiAxMDUxCjE2IGwxMDIyIDAgLTE0IC0zN3ogbS05NTMgLTI5MDEgYzUgLTkyIDMyIC0xNDQgMTAxIC0xODkgbDQyIC0yOCA3MjYgMCA3MjYgMAo0MiAyOCBjNjkgNDUgOTYgOTcgMTAxIDE4OSBsMyA3OCA3NDcgMCBjODI4IDAgNzkxIDMgNzkxIC02MyAwIC0xMzkgLTEwMgotMjkyIC0yMzggLTM1NSBsLTU3IC0yNyAtMjExNSAwIC0yMTE1IDAgLTU3IDI3IGMtNjcgMzEgLTE0NyAxMDMgLTE4MyAxNjMKLTI4IDQ4IC01NSAxNDIgLTU1IDE5MiAwIDY2IC0zNyA2MyA3OTEgNjMgbDc0NyAwIDMgLTc4eiBtMTU4OSAyMyBjMCAtNDIgLTUKLTYwIC0yMCAtNzUgLTIwIC0yMCAtMzMgLTIwIC03MDAgLTIwIC02NjcgMCAtNjgwIDAgLTcwMCAyMCAtMTUgMTUgLTIwIDMzCi0yMCA3NSBsMCA1NSA3MjAgMCA3MjAgMCAwIC01NXoiLz4KPHBhdGggZD0iTTM2OTQgNDIxNiBjLTIzMyAtNTMgLTQwNyAtMjE5IC00NjQgLTQ0MSAtNTQgLTIwOSAwIC00MTAgMTUxIC01NjkKMjMyIC0yNDUgNjE0IC0yNTAgODU0IC0xMiAxMTMgMTEyIDE3MCAyMzQgMTgxIDM5MCAxNiAyMTMgLTk1IDQzMyAtMjc4IDU0OQotMTIzIDc5IC0zMDkgMTE0IC00NDQgODN6IG0yMjUgLTE1MSBjODYgLTIxIDE1MiAtNTggMjE3IC0xMjMgMTc2IC0xNzcgMTc1Ci00NjYgLTQgLTY0MCAtMTc3IC0xNzQgLTQ0NiAtMTc4IC02MjggLTEwIC0yMzAgMjEyIC0xNzQgNTk4IDEwNiA3MzYgMTA1IDUyCjE5OCA2MyAzMDkgMzd6Ii8+CjxwYXRoIGQ9Ik03NTMgMzU2MCBjLTE4IC0xMCAtNDAgLTMxIC01MCAtNDcgLTE3IC0yNiAtMTggLTg0IC0yMSAtMTA3MyBsLTIKLTEwNDUgMjIgLTQ0IGMxNCAtMjggMzYgLTUxIDU4IC02MyAzMyAtMTcgMTExIC0xOCAxODAwIC0xOCAxNjg5IDAgMTc2NyAxCjE4MDAgMTggMjIgMTIgNDQgMzUgNTggNjMgbDIyIDQ0IC0yIDUzOCAtMyA1MzkgLTI0IDE5IGMtMzIgMjYgLTczIDI0IC05OSAtNApsLTIyIC0yMyAwIC01MjIgMCAtNTIyIC0xNzMwIDAgLTE3MzAgMCAwIDEwMDUgMCAxMDA1IDc4NiAyIDc4NiAzIDE5IDI0IGMyNgozMiAyNCA3MyAtNCA5OSBsLTIzIDIyIC04MDUgMCBjLTc3OSAwIC04MDUgLTEgLTgzNiAtMjB6Ii8+CjxwYXRoIGQ9Ik0xODU1IDMyODUgYy01IC0yIC0zNiAtOSAtNjggLTE1IC04OSAtMTggLTE0MCAtNzEgLTE1NSAtMTYzIC03IC0zNwotMTQgLTQ2IC02MyAtNzkgbC01NiAtMzcgLTQ0IDE1IGMtNTAgMTggLTExMyA3IC0xNTkgLTI2IC0zNyAtMjcgLTEwNyAtMTM3Ci0xMTUgLTE4MiAtOCAtNDQgOCAtMTAwIDQyIC0xNDUgMjMgLTMwIDI0IC0zNCAxMSAtOTQgLTEyIC01OCAtMTYgLTY0IC01OAotOTAgLTI3IC0xNyAtNTUgLTQ1IC02OSAtNzAgLTIxIC0zNyAtMjMgLTUwIC0xOCAtMTE4IDcgLTkxIDE5IC0xMjYgNTUgLTE2NAozNSAtMzcgNzQgLTU3IDExMCAtNTcgMzUgMCA1MSAtMTIgOTIgLTczIDI4IC00MiAzMSAtNTIgMjEgLTczIC0xNyAtMzcgLTEzCi0xMTQgNyAtMTU0IDE4IC0zNyA5NiAtMTAyIDE0OSAtMTI2IDYxIC0yNyAxNTggLTEyIDE5MiAyOSAxNiAyMCA0MSAyMSAxMTAgNgo0NCAtOSA1MyAtMTYgNzMgLTUyIDI2IC00NyA3NSAtODQgMTI0IC05MyA0OCAtOSAxNjggMTQgMjA2IDQwIDQ1IDMwIDc2IDc5Cjg0IDEzMiA2IDQxIDEyIDQ5IDYwIDgxIDUyIDM1IDU0IDM1IDEwMiAyMyA5MiAtMjQgMTU4IDUgMjIwIDk3IDQxIDYwIDYzIDExOQo1NyAxNTAgLTIgMTAgLTYgMzAgLTkgNDUgLTMgMTQgLTE4IDQxIC0zMiA1OCAtMjcgMzEgLTI3IDMxIC0xMyA5NyAxMyA2MyAxNgo2OCA1OCA5MyA1NCAzMSA5MSA5NCA5MSAxNTQgMCA1OSAtMjUgMTU0IC00NyAxODUgLTI4IDM3IC05MiA3MSAtMTM0IDcxIC0zMwowIC0zOSA1IC03MyA2MCAtMzQgNTUgLTM3IDY0IC0yNyA5MiAzMSA5MCAtMSAxNjcgLTk4IDIzMyAtMTAwIDY4IC0xNzcgNzEKLTI1MSA4IC0zMSAtMjYgLTQ2IC0yNiAtMTUxIDMgLTkgMyAtMjIgMTggLTI5IDM0IC0yOCA2NyAtMTM3IDEyNiAtMTk1IDEwNXoKbTcwIC0xOTAgYzMyIC02MCA3OCAtODggMTg3IC0xMDkgMTA3IC0yMSAxNDQgLTE1IDE5OSAzMiAzMSAyNSAzMSAyNSA2NSA3IDU4Ci0zMSA2OCAtNDggNTQgLTkxIC0yMCAtNTkgLTggLTExNiA0MSAtMTkxIDIzIC0zOCA1MCAtNzcgNTggLTg3IDIyIC0yNiA4OQotNTYgMTI4IC01NiAyOSAwIDMzIC00IDQzIC00MSAxNyAtNjEgMTAgLTgwIC0zNCAtMTA0IC01MyAtMjggLTgyIC03NiAtMTAxCi0xNzAgLTE5IC04OSAtMTYgLTE1MyA5IC0xODcgOSAtMTMgMjIgLTMyIDMxIC00MyAxMyAtMTggMTEgLTI1IC0xNyAtNjggLTI4Ci00NCAtMzQgLTQ4IC01NyAtNDAgLTE0IDQgLTUzIDggLTg3IDggLTU2IDAgLTY2IC00IC0xNDAgLTUzIC04OSAtNTggLTEyNAotMTA1IC0xMjQgLTE2NiAwIC00MSAtMTMgLTUxIC04MiAtNjEgLTQ2IC03IC00NyAtNyAtNjEgMjcgLTI0IDU4IC03NiA5MwotMTYyIDExMyAtMTIxIDI3IC0xNjMgMjMgLTIyMiAtMjEgLTQwIC0zMCAtNDQgLTMwIC05NCAzIC0zNiAyNCAtNDAgMzAgLTM1CjU3IDE5IDEwMSAxOSAxMDUgLTggMTU4IC01OSAxMTkgLTEyOSAxODggLTE5MiAxODggLTQ2IDAgLTY0IDE5IC03MCA3NiBsLTYKNTEgNDUgMjYgYzU5IDM1IDgxIDczIDEwMyAxNzcgMjAgMTAxIDE1IDE0MiAtMjcgMTk5IGwtMzAgNDIgMjIgMzUgYzM4IDYyIDQyCjY0IDk4IDQ3IDY1IC0xOSAxMDIgLTggMjAyIDU2IDgyIDUzIDExOSAxMDUgMTE5IDE2OSAwIDM2IDUgNDAgNjIgNTEgNTcgMTEKNjAgMTAgODMgLTM0eiIvPgo8cGF0aCBkPSJNMTg3OCAyODI5IGMtMTY1IC0zOSAtMjk4IC0xODMgLTMzMCAtMzU5IC0zNCAtMTgwIDczIC0zODAgMjQ5IC00NjMKNjQgLTMwIDc0IC0zMiAxODMgLTMyIDExMSAwIDExOCAxIDE4NSAzNCAxNzQgODYgMjc0IDI3NSAyNDQgNDYxIC00MCAyNDkKLTI4OCA0MTcgLTUzMSAzNTl6IG0xOTUgLTE1NSBjMjYgLTkgNjkgLTM2IDk2IC02MCAxNTAgLTEzNSAxMTkgLTM3MyAtNjAKLTQ2MyAtMTk1IC05NyAtNDE0IDM3IC00MTQgMjU0IDAgNTMgNiA4MSAyMyAxMTcgNjYgMTM0IDIxNyAxOTkgMzU1IDE1MnoiLz4KPC9nPgo8L3N2Zz4K;" vertex="1" parent="1">
          <mxGeometry x="160" y="200" width="103" height="103" as="geometry" />
        </mxCell>
        <mxCell id="KIZOwNAN3eOPZZ9ISucW-4" value="" style="shape=image;aspect=fixed;image=data:image/svg+xml,PD94bWwgdmVyc2lvbj0iMS4wIiBzdGFuZGFsb25lPSJubyI/Pgo8IURPQ1RZUEUgc3ZnIFBVQkxJQyAiLS8vVzNDLy9EVEQgU1ZHIDIwMDEwOTA0Ly9FTiIKICJodHRwOi8vd3d3LnczLm9yZy9UUi8yMDAxL1JFQy1TVkctMjAwMTA5MDQvRFREL3N2ZzEwLmR0ZCI+CjxzdmcgdmVyc2lvbj0iMS4wIiB4bWxucz0iaHR0cDovL3d3dy53My5vcmcvMjAwMC9zdmciCiB3aWR0aD0iNTEyLjAwMDAwMHB0IiBoZWlnaHQ9IjUxMi4wMDAwMDBwdCIgdmlld0JveD0iMCAwIDUxMi4wMDAwMDAgNTEyLjAwMDAwMCIKIHByZXNlcnZlQXNwZWN0UmF0aW89InhNaWRZTWlkIG1lZXQiPgoKPGcgdHJhbnNmb3JtPSJ0cmFuc2xhdGUoMC4wMDAwMDAsNTEyLjAwMDAwMCkgc2NhbGUoMC4xMDAwMDAsLTAuMTAwMDAwKSIKZmlsbD0iIzAwMDAwMCIgc3Ryb2tlPSJub25lIj4KPHBhdGggZD0iTTgyIDQ1NTkgYy0yOSAtMTUgLTQ5IC0zNCAtNjIgLTYwIC0xOSAtMzYgLTIwIC02MSAtMjAgLTQ3NCBsMCAtNDM1CjI1NjAgMCAyNTYwIDAgMCA0MzUgYzAgNDE0IC0xIDQzOCAtMjAgNDc0IC0xMyAyNyAtMzMgNDYgLTYzIDYwIGwtNDMgMjEKLTI0MzUgMCAtMjQzNCAwIC00MyAtMjF6IG0zNzM1IC00OTUgYzk2IC03MiA5NSAtMTkzIC0yIC0yNTAgLTM4IC0yMiAtNTIgLTI0Ci0xNzEgLTI0IC0xNDcgMCAtMTgzIDExIC0yMjEgNjkgLTQxIDYwIC0yMyAxNTkgMzQgMTk3IDQ1IDI5IDc1IDMzIDIwNSAzMQoxMTAgLTIgMTMxIC02IDE1NSAtMjN6IG01OTAgMCBjOTYgLTcyIDk1IC0xOTUgLTMgLTI1MSAtMzUgLTIwIC01MyAtMjMgLTE2OQotMjMgLTE0OCAwIC0xODQgMTEgLTIyMiA2OSAtNDEgNjAgLTIzIDE1OSAzNCAxOTcgNDUgMjkgNzUgMzMgMjA1IDMxIDExMCAtMgoxMzEgLTYgMTU1IC0yM3oiLz4KPHBhdGggZD0iTTQ0MCAyOTY3IGMwIC01MTYgMjMgLTcxMCAxMTYgLTk4NiA0NDQgLTEzMTYgMjAxOCAtMTg1MyAzMTc0IC0xMDg1CjU0NSAzNjEgODg4IDk0OCA5MzkgMTYwMyA2IDc0IDExIDI4NSAxMSA0NjggbDAgMzMzIC0yMTIwIDAgLTIxMjAgMCAwIC0zMzN6Cm0yMzczIC0xIGMxNjggLTUwIDMwMSAtMTMwIDQxOSAtMjUzIDE2OSAtMTc2IDI1OCAtMzk0IDI1OSAtNjM0IDAgLTEyNCAtNgotMTcyIC0zOCAtMjc5IC03MyAtMjQ5IC0yNDEgLTQ0NyAtNDc4IC01NjUgLTE0OCAtNzQgLTI1MSAtOTggLTQxNSAtOTggLTE2NAowIC0yNjcgMjQgLTQxNSA5OCAtMjM3IDExOCAtNDA1IDMxNiAtNDc4IDU2NSAtMzIgMTA3IC0zOCAxNTUgLTM4IDI3OSAxIDI0MAo5MCA0NTggMjU5IDYzNCAxMzYgMTQxIDI5MCAyMjYgNDkzIDI3MiAxMDQgMjQgMzIyIDE0IDQzMiAtMTl6Ii8+CjxwYXRoIGQ9Ik0yNDY0IDI3MDEgYy0xODIgLTI5IC0zNTkgLTE1MCAtNDUyIC0zMDcgLTIxMiAtMzYwIC0zOSAtODAyIDM2OAotOTQwIDQyIC0xNSA4NCAtMTkgMTgwIC0xOSAxMzkgMCAxODMgMTAgMzA1IDc0IDQ2IDIzIDk2IDYxIDE0NiAxMTEgMjA4IDIwNwoyNDcgNTE5IDk3IDc3NCAtNzggMTMyIC0yMjQgMjQ1IC0zNzYgMjkwIC02NSAxOSAtMjAwIDI3IC0yNjggMTd6IG0yMzAgLTM2MQpjNjIgLTMxIDEzMCAtMTA3IDE1MCAtMTY3IDUxIC0xNTAgLTEyIC0zMDYgLTE1MCAtMzc0IC0yMDEgLTk5IC00MzMgNDAgLTQzNAoyNjIgMCAxNDAgNzAgMjQxIDIwNSAyOTYgNTAgMjEgMTcyIDEyIDIyOSAtMTd6Ii8+CjwvZz4KPC9zdmc+Cg==;" vertex="1" parent="1">
          <mxGeometry x="495" y="323" width="40" height="40" as="geometry" />
        </mxCell>
        <mxCell id="KIZOwNAN3eOPZZ9ISucW-5" value="" style="shape=image;aspect=fixed;image=data:image/svg+xml,PD94bWwgdmVyc2lvbj0iMS4wIiBzdGFuZGFsb25lPSJubyI/Pgo8IURPQ1RZUEUgc3ZnIFBVQkxJQyAiLS8vVzNDLy9EVEQgU1ZHIDIwMDEwOTA0Ly9FTiIKICJodHRwOi8vd3d3LnczLm9yZy9UUi8yMDAxL1JFQy1TVkctMjAwMTA5MDQvRFREL3N2ZzEwLmR0ZCI+CjxzdmcgdmVyc2lvbj0iMS4wIiB4bWxucz0iaHR0cDovL3d3dy53My5vcmcvMjAwMC9zdmciCiB3aWR0aD0iNTEyLjAwMDAwMHB0IiBoZWlnaHQ9IjUxMi4wMDAwMDBwdCIgdmlld0JveD0iMCAwIDUxMi4wMDAwMDAgNTEyLjAwMDAwMCIKIHByZXNlcnZlQXNwZWN0UmF0aW89InhNaWRZTWlkIG1lZXQiPgoKPGcgdHJhbnNmb3JtPSJ0cmFuc2xhdGUoMC4wMDAwMDAsNTEyLjAwMDAwMCkgc2NhbGUoMC4xMDAwMDAsLTAuMTAwMDAwKSIKZmlsbD0iIzAwMDAwMCIgc3Ryb2tlPSJub25lIj4KPHBhdGggZD0iTTEzMzcgNTEwOSBjLTEyOSAtMzEgLTIzMSAtMTQxIC0yNTcgLTI3OCAtMTQgLTc0IC0xNCAtNDQ2OCAwIC00NTQyCjIyIC0xMTMgOTUgLTIwOSAxOTggLTI1NyBsNTcgLTI3IDEyMjUgMCAxMjI1IDAgNTcgMjcgYzEwMyA0OCAxNzYgMTQ0IDE5OAoyNTcgMTQgNzQgMTQgNDQ2OCAwIDQ1NDIgLTIyIDExMyAtOTUgMjA5IC0xOTggMjU3IGwtNTcgMjcgLTEyMDUgMiBjLTY4MyAwCi0xMjIxIC0zIC0xMjQzIC04eiBtMTYyMyAtMjU5IGM4IC0xNCA4IC0yNiAwIC00MCAtMTAgLTE5IC0yMSAtMjAgLTQwMCAtMjAKLTM3OSAwIC0zOTAgMSAtNDAwIDIwIC04IDE0IC04IDI2IDAgNDAgMTAgMTkgMjEgMjAgNDAwIDIwIDM3OSAwIDM5MCAtMSA0MDAKLTIweiBtODUwIC0yMjQ1IGwwIC0xOTY1IC0xMjUwIDAgLTEyNTAgMCAwIDE5NjUgMCAxOTY1IDEyNTAgMCAxMjUwIDAgMAotMTk2NXogbS0xMTkzIC0yMDk2IGMzNCAtMTMgODAgLTU1IDk5IC05MSAzMiAtNjEgMTEgLTE1NCAtNDUgLTIwMSAtMTE0IC05NgotMjgxIC0xNyAtMjgxIDEzMyAwIDExNCAxMjIgMTk5IDIyNyAxNTl6Ii8+CjwvZz4KPC9zdmc+Cg==;" vertex="1" parent="1">
          <mxGeometry x="469.25" y="213" width="93" height="93" as="geometry" />
        </mxCell>
        <mxCell id="KIZOwNAN3eOPZZ9ISucW-6" value="" style="shape=image;aspect=fixed;image=data:image/svg+xml,PD94bWwgdmVyc2lvbj0iMS4wIiBzdGFuZGFsb25lPSJubyI/Pgo8IURPQ1RZUEUgc3ZnIFBVQkxJQyAiLS8vVzNDLy9EVEQgU1ZHIDIwMDEwOTA0Ly9FTiIKICJodHRwOi8vd3d3LnczLm9yZy9UUi8yMDAxL1JFQy1TVkctMjAwMTA5MDQvRFREL3N2ZzEwLmR0ZCI+CjxzdmcgdmVyc2lvbj0iMS4wIiB4bWxucz0iaHR0cDovL3d3dy53My5vcmcvMjAwMC9zdmciCiB3aWR0aD0iNTEyLjAwMDAwMHB0IiBoZWlnaHQ9IjUxMi4wMDAwMDBwdCIgdmlld0JveD0iMCAwIDUxMi4wMDAwMDAgNTEyLjAwMDAwMCIKIHByZXNlcnZlQXNwZWN0UmF0aW89InhNaWRZTWlkIG1lZXQiPgoKPGcgdHJhbnNmb3JtPSJ0cmFuc2xhdGUoMC4wMDAwMDAsNTEyLjAwMDAwMCkgc2NhbGUoMC4xMDAwMDAsLTAuMTAwMDAwKSIKZmlsbD0iIzAwMDAwMCIgc3Ryb2tlPSJub25lIj4KPHBhdGggZD0iTTIzMjAgNDU1NCBjLTQ4NiAtNDQgLTg3NSAtMTQ3IC0xMjY2IC0zMzQgLTMzMCAtMTU4IC02NDEgLTM3MiAtODk0Ci02MTcgLTExNiAtMTExIC0xNDggLTE2MiAtMTU3IC0yNDYgLTIwIC0xOTIgMTYwIC0zNTUgMzQ4IC0zMTYgNzAgMTUgMTA4IDM4CjE5NCAxMTkgNTU2IDUyNyAxMjYwIDgxMCAyMDE1IDgxMCA3NTUgMCAxNDU5IC0yODMgMjAxNSAtODEwIDg3IC04MiAxMjQgLTEwNQoxOTYgLTExOSAyMzIgLTQ4IDQyMyAyMDMgMzE4IDQxNSAtMjggNTUgLTE5NSAyMTkgLTM0NyAzNDAgLTUwNyA0MDQgLTEwODAKNjQ3IC0xNzMyIDczNSAtMTQwIDE5IC01NzMgMzMgLTY5MCAyM3oiLz4KPHBhdGggZD0iTTIzNDggMzU3OSBjLTQ5MSAtNDAgLTk3NyAtMjM1IC0xMzY4IC01NDcgLTIzMiAtMTg2IC0yOTcgLTI3OCAtMjg3Ci00MTIgNyAtMTEwIDYwIC0xOTAgMTU5IC0yMzkgNTEgLTI2IDczIC0zMSAxMzIgLTMxIDk1IDAgMTQ3IDI2IDI1NiAxMjUgMjU0CjIzMiA1MjQgMzgwIDgzOCA0NTkgMTc3IDQ1IDI4NCA1OCA0ODIgNTggNTA2IDAgOTM5IC0xNjkgMTMyMCAtNTE3IDEwOSAtOTkKMTYxIC0xMjUgMjU2IC0xMjUgMTYwIDAgMjgxIDExMiAyOTEgMjcwIDEwIDEzNCAtNTUgMjI2IC0yODcgNDEyIC01MDcgNDA1Ci0xMTQ4IDYwMCAtMTc5MiA1NDd6Ii8+CjxwYXRoIGQ9Ik0yNDc1IDI2MTQgYy0xNjUgLTEyIC0zNDQgLTUxIC00OTEgLTEwOSAtMjM5IC05NCAtNTI4IC0zMTAgLTU4NAotNDM4IC0zMyAtNzQgLTI5IC0xNjQgMTAgLTI0MyA0OCAtOTggMTMxIC0xNTQgMjQwIC0xNjEgOTIgLTcgMTU1IDE5IDI0OSAxMDIKMTM5IDEyMiAyNjAgMTg4IDQyNiAyMzEgMTQzIDM3IDMyNyAzNyA0NzAgMCAxNjYgLTQzIDI4NyAtMTA5IDQyNiAtMjMxIDk0Ci04MyAxNTcgLTEwOSAyNDkgLTEwMiAxNTYgMTAgMjcxIDEzNCAyNzEgMjkxIDAgOTMgLTI5IDE1MyAtMTE3IDIzOSAtMjE4IDIxMgotNTM0IDM2NCAtODQ0IDQwNiAtOTEgMTIgLTIzNyAxOSAtMzA1IDE1eiIvPgo8cGF0aCBkPSJNMjUwMCAxNTU5IGMtMzQ4IC00MCAtNTQ0IC00MTUgLTM4MyAtNzMzIDUyIC0xMDIgMTc5IC0yMDggMjkxIC0yNDIKNzUgLTI0IDIyOCAtMjQgMzAwIC0xIDgxIDI1IDE1MiA3MCAyMTQgMTM1IDE1NCAxNjEgMTgyIDM4NCA3NSA1OTAgLTkwIDE3MgotMjkzIDI3NSAtNDk3IDI1MXoiLz4KPC9nPgo8L3N2Zz4K;" vertex="1" parent="1">
          <mxGeometry x="489.25" y="160" width="53" height="53" as="geometry" />
        </mxCell>
        <mxCell id="KIZOwNAN3eOPZZ9ISucW-7" value="" style="edgeStyle=elbowEdgeStyle;elbow=horizontal;endArrow=oval;html=1;curved=0;rounded=0;endSize=8;startSize=8;exitX=1;exitY=0.5;exitDx=0;exitDy=0;entryX=0.125;entryY=1.025;entryDx=0;entryDy=0;entryPerimeter=0;strokeWidth=3;endFill=1;startArrow=oval;startFill=1;" edge="1" parent="1" source="KIZOwNAN3eOPZZ9ISucW-3" target="KIZOwNAN3eOPZZ9ISucW-1">
          <mxGeometry width="50" height="50" relative="1" as="geometry">
            <mxPoint x="490" y="440" as="sourcePoint" />
            <mxPoint x="370" y="170" as="targetPoint" />
            <Array as="points">
              <mxPoint x="370" y="210" />
            </Array>
          </mxGeometry>
        </mxCell>
        <mxCell id="KIZOwNAN3eOPZZ9ISucW-10" value="&lt;h4&gt;&lt;font style=&quot;font-size: 14px;&quot;&gt;Central de Processamento&lt;/font&gt;&lt;/h4&gt;" style="text;strokeColor=none;fillColor=none;html=1;fontSize=24;fontStyle=1;verticalAlign=middle;align=center;fontFamily=Helvetica;" vertex="1" parent="1">
          <mxGeometry x="107.25" y="290" width="208.5" height="40" as="geometry" />
        </mxCell>
        <mxCell id="KIZOwNAN3eOPZZ9ISucW-11" value="&lt;h4&gt;&lt;font style=&quot;font-size: 14px;&quot;&gt;Ambiente&lt;/font&gt;&lt;/h4&gt;" style="text;strokeColor=none;fillColor=none;html=1;fontSize=24;fontStyle=1;verticalAlign=middle;align=center;fontFamily=Helvetica;" vertex="1" parent="1">
          <mxGeometry x="360" y="463" width="310" height="40" as="geometry" />
        </mxCell>
        <mxCell id="KIZOwNAN3eOPZZ9ISucW-12" value="&lt;h4&gt;&lt;font style=&quot;font-size: 14px;&quot;&gt;Roteador&lt;/font&gt;&lt;/h4&gt;" style="text;strokeColor=none;fillColor=none;html=1;fontSize=24;fontStyle=1;verticalAlign=middle;align=left;fontFamily=Helvetica;" vertex="1" parent="1">
          <mxGeometry x="290" y="110" width="128.5" height="40" as="geometry" />
        </mxCell>
        <mxCell id="KIZOwNAN3eOPZZ9ISucW-13" value="&lt;h4&gt;&lt;font style=&quot;font-size: 14px;&quot;&gt;Celular&lt;/font&gt;&lt;/h4&gt;" style="text;strokeColor=none;fillColor=none;html=1;fontSize=24;fontStyle=1;verticalAlign=middle;align=left;fontFamily=Helvetica;" vertex="1" parent="1">
          <mxGeometry x="549.25" y="239.5" width="100" height="40" as="geometry" />
        </mxCell>
      </root>
    </mxGraphModel>
  </diagram>
</mxfile>
